<svg id="Layer_3" data-name="Layer 3" xmlns="http://www.w3.org/2000/svg" viewBox="0 0 587.29 95.89"><defs><style>.cls-1{fill:#fff;}</style></defs><path class="cls-1" d="M220,405.12a5.24,5.24,0,0,1-5.24-5.23,16.6,16.6,0,1,0-33.2,0,5.16,5.16,0,0,1-.36,2.05,5.1,5.1,0,0,1-1.12,1.74,5.21,5.21,0,0,1-3.76,1.59,5.28,5.28,0,0,1-4.89-3.33,5.33,5.33,0,0,1-.35-2.05,27.09,27.09,0,0,1,54.17,0,5.07,5.07,0,0,1-.4,2,5.16,5.16,0,0,1-1.13,1.7,5.21,5.21,0,0,1-3.72,1.53Z" transform="translate(-106.35 -352.05)"/><path class="cls-1" d="M154.5,426.92a27.09,27.09,0,0,1-27.09-27,5.13,5.13,0,0,1,.36-2.05,5.22,5.22,0,0,1,4.88-3.33,5.25,5.25,0,0,1,3.76,1.58,5.32,5.32,0,0,1,1.13,1.75,5.5,5.5,0,0,1,.36,2.05,16.61,16.61,0,0,0,33.2,0,5.24,5.24,0,0,1,10.48,0,27.09,27.09,0,0,1-27.08,27Z" transform="translate(-106.35 -352.05)"/><path class="cls-1" d="M241.11,405.12a5.24,5.24,0,0,1-5.25-5.23,37.66,37.66,0,0,0-75.32,0,5.25,5.25,0,0,1-8.9,3.6,5.17,5.17,0,0,1-1.58-3.6,48.15,48.15,0,0,1,96.29,0,5.07,5.07,0,0,1-.4,2,5.27,5.27,0,0,1-1.13,1.7,5.32,5.32,0,0,1-3.71,1.53Z" transform="translate(-106.35 -352.05)"/><path class="cls-1" d="M154.5,448a48.17,48.17,0,0,1-48.15-48.06,5.25,5.25,0,0,1,10.49,0,37.59,37.59,0,0,0,11,26.71,37.65,37.65,0,0,0,64.36-26.71,5.24,5.24,0,0,1,10.48,0A48.16,48.16,0,0,1,154.5,448Z" transform="translate(-106.35 -352.05)"/><path class="cls-1" d="M230.58,415.63a15.77,15.77,0,0,1-15.78-15.74,5.29,5.29,0,0,1,1.48-3.8,5.27,5.27,0,0,1,5.8-1.17,5.2,5.2,0,0,1,1.72,1.17,5.18,5.18,0,0,1,1.48,3.8,5.16,5.16,0,0,0,.34,2.09,5.09,5.09,0,0,0,1.13,1.79,5.15,5.15,0,0,0,1.74,1.21,5.3,5.3,0,0,0,5.91-1.21,5.39,5.39,0,0,0,1.13-1.79,5.33,5.33,0,0,0,.33-2.09,5.18,5.18,0,0,1,1.48-3.8,5.2,5.2,0,0,1,1.72-1.17,5.28,5.28,0,0,1,4.08,0,5.2,5.2,0,0,1,1.72,1.17,5.18,5.18,0,0,1,1.48,3.8,15.77,15.77,0,0,1-15.76,15.74Z" transform="translate(-106.35 -352.05)"/><path class="cls-1" d="M132.66,404.73a5.24,5.24,0,0,1-5.25-5.23,5.24,5.24,0,0,0-.38-2,5.32,5.32,0,0,0-2.86-2.91,5.4,5.4,0,0,0-4.08,0,5.24,5.24,0,0,0-1.73,1.17,5.3,5.3,0,0,0-1.14,1.74,5.24,5.24,0,0,0-.38,2,5.24,5.24,0,0,1-10.48,0,15.78,15.78,0,0,1,31.55,0,5.25,5.25,0,0,1-.4,2,5.19,5.19,0,0,1-1.14,1.7,5.41,5.41,0,0,1-1.7,1.14A5.33,5.33,0,0,1,132.66,404.73Z" transform="translate(-106.35 -352.05)"/><path class="cls-1" d="M354.29,369.32c-.24,4.8-.32,9.6-.32,16.8,0,4.48.16,10.88.16,16.24,0,18.8-9.52,28.32-34.8,28.32s-34.88-9.52-34.88-28.32c0-5.36.16-11.76.16-16.24,0-7.2-.16-12-.32-16.8h14.32c-.32,8.24-.48,24.24-.48,32.48,0,11.84,6.64,17,21.52,17s20.72-5.2,20.72-17c0-8.24-.08-24.32-.32-32.48Z" transform="translate(-106.35 -352.05)"/><path class="cls-1" d="M432.37,369.32c-.16,7-.24,17.2-.24,29.92,0,13.2,0,22.08.16,30.08H418c-4.24-5.84-21.68-23.52-34.32-36.32a107.87,107.87,0,0,1-8.16-9.52c.32,4.72.48,9.36.64,13.84,0,16.24,0,27.44.24,32H363c.08-7.92.24-17.2.24-30s0-22.32-.24-30h16.48c3.2,4.56,22.48,23.6,33.84,35.68a56.68,56.68,0,0,1,7,8.88l.16-.08c-.4-4.48-.64-9-.64-13,0-12.8-.16-26.16-.56-31.44Z" transform="translate(-106.35 -352.05)"/><path class="cls-1" d="M441.49,429.32c.24-9.28.24-17.28.24-30s0-20.8-.24-30h14.24c-.32,9.12-.24,17.12-.24,29.92,0,12.64-.08,20.72.24,30.08Z" transform="translate(-106.35 -352.05)"/><path class="cls-1" d="M525.65,369.32c-.08,1.52-.16,3.68-.16,5.52,0,2.16.08,4.56.16,6.24-17-.08-33.68-.16-47-.16v18.32c16.32,0,32.48,0,46.32-.24-.16,2.88-.16,8.16-.16,11-13.68,0-29.92-.16-46.08-.16.08,7.12.24,14.4.48,19.52h-14.4c.16-8.24.24-17.28.24-30s0-21.92-.24-30Z" transform="translate(-106.35 -352.05)"/><path class="cls-1" d="M531.81,429.32c.24-9.28.24-17.28.24-30s0-20.8-.24-30h14.24c-.32,9.12-.24,17.12-.24,29.92,0,12.64-.08,20.72.24,30.08Z" transform="translate(-106.35 -352.05)"/><path class="cls-1" d="M617.09,369.32c-.08,1.2-.08,3.36-.08,5s0,4.16.08,5.44c-15.44-.16-35.36-.24-47.92-.24v14.72c15,0,34.72,0,47-.16-.08,2.24-.08,7.36-.08,9.76-12.16-.16-32-.32-47-.32v15c12.64,0,33.12-.08,47.92-.24C617,419.64,617,422,617,424c0,1.68,0,4,.08,5.36H555c.32-7.76.32-17.2.32-30s0-22.56-.32-30Z" transform="translate(-106.35 -352.05)"/><path class="cls-1" d="M659.09,369.32c25,0,34.56,8.64,34.56,29.2,0,21-9.28,30.8-34.72,30.8H624.37c.23-8.32.23-17.2.23-29.92s0-22.4-.23-30.08Zm20.8,29.44c0-14.16-6.48-18.4-21.28-18.4-7.28,0-13.92.08-20.08.24-.16,5.92-.24,13-.24,19.2,0,8.24,0,13.68.08,18.08,7.28.48,12.32.32,20.16.32C673,418.2,679.89,413.24,679.89,398.76Z" transform="translate(-106.35 -352.05)"/></svg>